HIERARCHY
ROOT hip
{
  OFFSET 0 0 0
  CHANNELS 6 Xposition Yposition Zposition Zrotation Yrotation Xrotation
  JOINT abdomen
  {
    OFFSET 0 20.6881 -0.73152
    CHANNELS 3 Zrotation Xrotation Yrotation
    JOINT chest
    {
      OFFSET 0 11.7043 -0.48768
      CHANNELS 3 Zrotation Xrotation Yrotation
      JOINT neck
      {
        OFFSET 0 22.1894 -2.19456
        CHANNELS 3 Zrotation Xrotation Yrotation
        JOINT head
        {
          OFFSET -0.24384 7.07133 1.2192
          CHANNELS 3 Zrotation Xrotation Yrotation
          JOINT leftEye
          {
            OFFSET 4.14528 8.04674 8.04672
            CHANNELS 3 Zrotation Xrotation Yrotation
            End Site
            {
              OFFSET 1 0 0
            }
          }
          JOINT rightEye
          {
            OFFSET -3.6576 8.04674 8.04672
            CHANNELS 3 Zrotation Xrotation Yrotation
            End Site
            {
              OFFSET 1 0 0
            }
          }
        }
      }
      JOINT rCollar
      {
        OFFSET -2.68224 19.2634 -4.8768
        CHANNELS 3 Zrotation Xrotation Yrotation
        JOINT rShldr
        {
          OFFSET -8.77824 -1.95073 1.46304
          CHANNELS 3 Zrotation Xrotation Yrotation
          JOINT rForeArm
          {
            OFFSET -28.1742 -1.7115 0.48768
            CHANNELS 3 Zrotation Xrotation Yrotation
            JOINT rHand
            {
              OFFSET -22.5879 0.773209 7.07136
              CHANNELS 3 Zrotation Xrotation Yrotation
              JOINT rThumb1
              {
                OFFSET -1.2192 -0.487915 3.41376
                CHANNELS 3 Zrotation Xrotation Yrotation
                JOINT rThumb2
                {
                  OFFSET -3.37035 -0.52449 3.41376
                  CHANNELS 3 Zrotation Xrotation Yrotation
                  End Site
                  {
                    OFFSET -1.78271 -1.18214 1.43049
                  }
                }
              }
              JOINT rIndex1
              {
                OFFSET -7.75947 0.938293 5.60832
                CHANNELS 3 Zrotation Xrotation Yrotation
                JOINT rIndex2
                {
                  OFFSET -2.54057 -0.884171 1.56538
                  CHANNELS 3 Zrotation Xrotation Yrotation
                  End Site
                  {
                    OFFSET -1.62519 -0.234802 1.16502
                  }
                }
              }
              JOINT rMid1
              {
                OFFSET -8.24714 1.18213 3.41376
                CHANNELS 3 Zrotation Xrotation Yrotation
                JOINT rMid2
                {
                  OFFSET -3.10165 -0.590103 1.0647
                  CHANNELS 3 Zrotation Xrotation Yrotation
                  End Site
                  {
                    OFFSET -2.48547 -0.328903 0.83742
                  }
                }
              }
              JOINT rRing1
              {
                OFFSET -8.82822 0.546677 1.51678
                CHANNELS 3 Zrotation Xrotation Yrotation
                JOINT rRing2
                {
                  OFFSET -2.60934 -0.819778 -0.0198488
                  CHANNELS 3 Zrotation Xrotation Yrotation
                  End Site
                  {
                    OFFSET -2.33842 -0.294052 0.168128
                  }
                }
              }
              JOINT rPinky1
              {
                OFFSET -8.27202 -0.0477905 -0.4584
                CHANNELS 3 Zrotation Xrotation Yrotation
                JOINT rPinky2
                {
                  OFFSET -1.82734 -0.647385 -0.700984
                  CHANNELS 3 Zrotation Xrotation Yrotation
                  End Site
                  {
                    OFFSET -1.69225 -0.51767 -0.607171
                  }
                }
              }
            }
          }
        }
      }
      JOINT lCollar
      {
        OFFSET 2.68224 19.2634 -4.8768
        CHANNELS 3 Zrotation Xrotation Yrotation
        JOINT lShldr
        {
          OFFSET 8.77824 -1.95073 1.46304
          CHANNELS 3 Zrotation Xrotation Yrotation
          JOINT lForeArm
          {
            OFFSET 28.1742 -1.7115 0.48768
            CHANNELS 3 Zrotation Xrotation Yrotation
            JOINT lHand
            {
              OFFSET 22.5879 0.773209 7.07136
              CHANNELS 3 Zrotation Xrotation Yrotation
              JOINT lThumb1
              {
                OFFSET 1.2192 -0.487915 3.41376
                CHANNELS 3 Zrotation Xrotation Yrotation
                JOINT lThumb2
                {
                  OFFSET 3.37035 -0.52449 3.41376
                  CHANNELS 3 Zrotation Xrotation Yrotation
                  End Site
                  {
                    OFFSET 1.78271 -1.18214 1.43049
                  }
                }
              }
              JOINT lIndex1
              {
                OFFSET 7.75947 0.938293 5.60832
                CHANNELS 3 Zrotation Xrotation Yrotation
                JOINT lIndex2
                {
                  OFFSET 2.54057 -0.884171 1.56538
                  CHANNELS 3 Zrotation Xrotation Yrotation
                  End Site
                  {
                    OFFSET 1.62519 -0.234802 1.16502
                  }
                }
              }
              JOINT lMid1
              {
                OFFSET 8.24714 1.18213 3.41376
                CHANNELS 3 Zrotation Xrotation Yrotation
                JOINT lMid2
                {
                  OFFSET 3.10165 -0.590103 1.0647
                  CHANNELS 3 Zrotation Xrotation Yrotation
                  End Site
                  {
                    OFFSET 2.48547 -0.328903 0.83742
                  }
                }
              }
              JOINT lRing1
              {
                OFFSET 8.82822 0.546677 1.51678
                CHANNELS 3 Zrotation Xrotation Yrotation
                JOINT lRing2
                {
                  OFFSET 2.60934 -0.819778 -0.0198488
                  CHANNELS 3 Zrotation Xrotation Yrotation
                  End Site
                  {
                    OFFSET 2.33842 -0.294052 0.168128
                  }
                }
              }
              JOINT lPinky1
              {
                OFFSET 8.27202 -0.0477905 -0.4584
                CHANNELS 3 Zrotation Xrotation Yrotation
                JOINT lPinky2
                {
                  OFFSET 1.82734 -0.647385 -0.700984
                  CHANNELS 3 Zrotation Xrotation Yrotation
                  End Site
                  {
                    OFFSET 1.69225 -0.51767 -0.607171
                  }
                }
              }
            }
          }
        }
      }
    }
  }
  JOINT rButtock
  {
    OFFSET -8.77824 4.35084 1.2192
    CHANNELS 3 Zrotation Xrotation Yrotation
    JOINT rThigh
    {
      OFFSET 0 -1.70687 -2.19456
      CHANNELS 3 Zrotation Xrotation Yrotation
      JOINT rShin
      {
        OFFSET 0 -36.8199 0.73152
        CHANNELS 3 Zrotation Xrotation Yrotation
        JOINT rFoot
        {
          OFFSET 0.73152 -45.1104 -5.12064
          CHANNELS 3 Zrotation Xrotation Yrotation
          End Site
          {
            OFFSET -1.1221 -3.69964 12.103
          }
        }
      }
    }
  }
  JOINT lButtock
  {
    OFFSET 8.77824 4.35084 1.2192
    CHANNELS 3 Zrotation Xrotation Yrotation
    JOINT lThigh
    {
      OFFSET 0 -1.70687 -2.19456
      CHANNELS 3 Zrotation Xrotation Yrotation
      JOINT lShin
      {
        OFFSET 0 -36.8199 0.73152
        CHANNELS 3 Zrotation Xrotation Yrotation
        JOINT lFoot
        {
          OFFSET -0.73152 -45.1104 -5.12064
          CHANNELS 3 Zrotation Xrotation Yrotation
          End Site
          {
            OFFSET 1.1221 -3.69964 12.103
          }
        }
      }
    }
  }
}
MOTION
Frames:	6
Frame Time:	0.00833333
0.0 0.0 0.0 0.0 0.0 0.0 0.0 0.0 0.0 0.0 0.0 0.0 0.0 0.0 0.0 0.0 0.0 0.0 0.0 0.0 0.0 0.0 0.0 0.0 0.0 0.0 0.0 0.0 0.0 0.0 0.0 0.0 0.0 0.0 0.0 0.0 0.0 0.0 0.0 0.0 0.0 0.0 0.0 0.0 0.0 0.0 0.0 0.0 0.0 0.0 0.0 0.0 0.0 0.0 0.0 0.0 0.0 0.0 0.0 0.0 0.0 0.0 0.0 0.0 0.0 0.0 0.0 0.0 0.0 0.0 0.0 0.0 0.0 0.0 0.0 0.0 0.0 0.0 0.0 0.0 0.0 0.0 0.0 0.0 0.0 0.0 0.0 0.0 0.0 0.0 0.0 0.0 0.0 0.0 0.0 0.0 0.0 0.0 0.0 0.0 0.0 0.0 0.0 0.0 0.0 0.0 0.0 0.0 0.0 0.0 0.0 0.0 0.0 0.0 0.0 0.0 0.0 0.0 0.0 0.0 0.0 0.0 0.0 0.0 0.0 0.0 0.0 0.0 0.0 0.0 0.0 0.0
9.2598 54.7728 -150.9186 1.395481 44.983406 2.335408 -3.548505 2.158568 -0.0 1.028342 -2.793298 -1.187965 9.210539 16.23965 104.782318 -15.653628 10.817747 -116.1364 0.000139 0.0 0.002224 0.000139 0.0 0.002224 -155.416959 -2.951596 161.718139 -86.719893 75.760251 91.006705 -85.571345 56.224966 100.615194 6.089491 -13.728277 2.320913 71.830865 -48.263979 25.791814 -14.497383 -30.859191 -26.657555 11.980654 -21.347033 -5.061826 4.470862 13.194222 1.767163 -36.037813 51.722127 29.833945 -42.043657 58.503758 36.270848 -76.2938 72.93795 94.351729 -158.620706 -28.218732 -179.727033 -12.436103 -24.247262 -11.817944 -146.475877 10.410799 -143.279085 -0.023236 -0.138605 0.031116 152.136391 -26.578204 179.310924 -176.582074 59.238148 141.530987 11.916063 17.068686 -0.024483 168.137053 -5.815071 -89.871103 77.520688 4.015341 -26.694549 46.209457 39.653071 -36.317504 2.42969 13.273948 -0.420675 -23.903258 -61.333939 -1.398176 7.534021 26.144057 -6.144739 145.1189 0.185434 179.186669 154.168932 -12.523084 177.502533 -9.030187 28.890616 -7.89522 85.5898 -53.793727 84.566611 -0.000507 -0.000394 0.000652 -6.574856 -19.320251 0.0 -1.30621 22.971483 -85.392672 -6.45975 -44.80494 90.850097 0.0 0.000454 -0.000799 4.202785 -12.718608 1.008466 -2.588218 38.444136 139.632641 -70.226265 -38.08956 -165.284706
9.2374 54.7829 -150.9246 1.244907 44.948918 2.270645 -5.386344 4.44251 0.194032 2.497706 -5.808293 -2.508652 -13.05442 25.710679 -103.913809 25.327499 22.584484 75.933497 -0.000631 0.0 -0.002168 -0.000287 0.0 -0.000555 4.261007 -46.008907 -8.909449 -149.998192 81.682026 -177.238415 -1.30906 77.607933 -85.124058 158.509438 -35.79368 139.114371 114.538139 -50.244594 55.721621 -167.692655 -27.457927 123.809793 -162.918991 -37.929398 122.629359 10.16667 6.42614 -8.629303 -89.835598 60.702784 81.262851 -169.996163 -25.759253 144.095901 -145.122788 1.975289 -179.749122 11.051669 13.767374 -7.370897 -7.664446 -16.648813 -7.225051 -22.50832 -40.195829 -23.588236 40.043629 -86.055725 61.575236 73.1631 -62.233223 78.675439 -177.744048 15.910988 110.84331 10.299693 -13.536422 4.169046 93.743604 37.96412 -53.548679 -168.010123 -44.852434 -73.409839 77.667709 43.030505 -64.538283 -65.575401 -60.496101 -22.015822 125.645074 49.840275 -115.27419 6.345778 24.3384 -5.686536 73.163384 -72.142444 90.198148 78.872257 83.20832 -96.717004 -8.146726 25.599299 -7.178018 -62.661573 85.72558 24.881577 6.8e-05 -0.000372 -8.7e-05 -19.999493 -35.960082 -66.727881 -35.946242 26.184851 -29.702574 144.073102 22.324286 -68.954367 0.000648 0.001285 0.000324 11.791748 -18.429303 33.438942 8.599275 52.88265 -101.329085 170.348675 61.956093 -84.7968
9.2372 54.7998 -150.9406 1.248279 44.957429 2.270683 -6.943584 6.477546 -0.0 3.731132 -8.52148 -3.334549 -12.740125 32.935001 -120.386911 27.771061 31.115215 76.616105 0.000428 -0.0 -0.002185 0.000608 0.0 0.003345 -152.945052 10.512784 158.538652 -151.867485 -88.981474 -125.630743 -47.067835 39.577605 -72.409319 119.329092 -63.002239 105.569523 -12.609287 11.778435 3.199044 145.013389 -77.559701 66.261209 -50.386057 40.827136 40.024056 -155.370813 3.27516 111.004802 -151.475736 17.841939 137.539866 -42.403012 58.299406 36.590721 -145.098836 -1.521368 -178.649602 -6.932898 -61.246193 -28.037214 -133.878301 -15.638808 -131.332799 -73.78455 -53.174777 -74.003682 155.537356 -3.733092 -161.885737 -131.876591 -43.627083 -164.338568 160.663126 33.957197 -41.076459 153.226289 20.006481 -135.910412 85.8298 38.631197 -47.955119 24.607822 -6.560665 -34.295978 2.685373 4.226649 -1.585672 19.464236 33.253648 -14.237281 -7.904216 -24.8076 3.013089 176.085649 -41.176295 -143.057114 70.641638 72.964218 -88.426363 -5.176612 26.572088 0.878864 -17.317311 60.660127 -12.796953 129.375253 -28.893652 126.507354 -0.000134 0.000386 0.000173 -43.026768 -46.309808 -141.339917 -68.066018 -4.786967 -77.187064 23.390235 6.279722 178.729963 -0.008543 0.002043 -0.006407 22.116537 -22.47985 -33.454962 -64.451792 26.260182 70.182316 31.852026 -12.114407 23.678647
9.2409 54.81510000000001 -150.9566 1.273317 44.971014 2.274654 -8.027186 7.894996 0.77631 4.417937 -10.496718 -4.835266 3.080911 36.801163 148.580238 -22.27833 37.887331 168.878902 -0.003368 -0.0 0.000525 0.002304 -0.0 -0.000207 -33.840536 -85.665494 -55.25815 -138.552699 0.703505 -145.512088 14.641391 30.48618 -127.901407 159.792905 -28.986284 142.346516 81.276732 -49.994725 32.240227 -15.193291 -37.823087 -28.830599 88.792602 -75.498285 40.048632 29.454867 -22.610018 -6.732623 -36.035883 51.722662 29.833647 80.696836 -77.903086 52.064885 -0.021007 -1.726118 -0.542027 -55.407351 -86.716562 -77.06308 -26.564096 -38.86031 -25.607306 7.572727 13.115287 3.189852 155.538301 -3.73333 -161.884781 178.056364 73.904666 -123.631239 -136.892087 16.563285 37.35263 26.420087 -2.283796 -5.572662 12.926942 12.051203 -3.310677 41.849942 22.457974 -42.273205 85.858822 41.979346 -71.893687 82.373476 52.660848 -59.744196 160.098751 -4.901091 -142.968793 -9.985203 -20.330781 1.139946 145.118029 0.309404 179.227158 74.519187 -78.001224 96.022458 20.141871 -33.377239 19.313152 146.575014 11.258035 143.368451 -0.005012 -0.000223 -0.002506 -62.693496 -46.321225 -55.363099 36.194118 76.576821 153.108047 -87.045602 23.114127 177.382889 -179.995158 75.749017 -0.003313 -143.530564 41.048227 -110.822887 -86.529024 -8.390812 162.83254 -73.706946 22.223312 -34.557215
9.2389 54.8279 -150.96959999999999 1.271897 44.976314 2.269963 -6.44623 4.674815 -125.804346 4.402313 6.618225 120.561625 -1.405899 20.846677 27.44225 -13.446912 -23.686969 -83.37302 -0.000248 0.0 -0.001126 -6.8e-05 0.0 -0.002407 -159.220231 -48.028457 170.415479 -2.921355 9.666999 -43.380473 -65.615876 81.090909 159.732784 -7.319921 39.525795 3.609865 4.531232 -4.513959 -0.520587 -110.233859 6.578321 100.019365 -1.161658 1.860722 0.670352 122.731068 -61.28564 65.200246 23.904714 -61.333673 1.399462 -13.618255 36.348349 10.753881 -0.008636 -0.872151 -0.27369 -156.042334 -13.746951 173.485249 0.100257 0.257979 0.091591 2.497483 0.046759 0.031924 0.164992 0.979218 -0.218836 94.391466 -26.041953 178.557034 -174.113386 -40.080658 76.752009 21.51973 -50.931258 14.195102 -71.830963 -48.264037 -25.791611 157.770135 -36.247745 -131.311945 174.89211 -54.095156 -119.330232 -177.850181 -51.359175 -109.477977 89.835206 60.702264 -81.262905 4.603786 20.7972 -4.469307 145.100452 -1.521006 178.649953 152.805911 -21.612606 175.992349 157.329143 57.246768 150.51105 127.365441 -30.01244 124.268545 179.977022 75.749453 0.018906 138.929844 2.743646 1.398589 -4.135374 80.842096 -109.489918 -26.305065 60.584868 121.672404 -0.0 0.000995 0.00077 30.77746 -25.288566 31.993739 -118.678563 80.207234 -10.421448 -53.504633 53.648362 -176.615078
